<?xml version="1.0"?>
<svg xmlns="http://www.w3.org/2000/svg" xmlns:xlink="http://www.w3.org/1999/xlink" version="1.1" id="Capa_1" x="0px" y="0px" viewBox="0 0 483.788 483.788" style="enable-background:new 0 0 483.788 483.788;" xml:space="preserve" width="512px" height="512px" class=""><g><path style="fill:#F4F5F7" d="M407.51,220.996c6.269,14.106,20.376,24.033,36.571,24.033c21.943,0,39.706-17.763,39.706-39.706  s-17.763-39.706-39.706-39.706c-16.196,0-30.302,9.927-36.571,24.033h-47.543v-50.155c0-8.882-6.792-15.673-15.673-15.673h-50.678  V77.845h31.347c6.269,14.106,20.376,24.033,36.571,24.033c21.943,0,39.706-17.763,39.706-39.706s-17.763-39.706-39.706-39.706  c-16.196,0-30.302,9.927-36.571,24.033h-47.02c-8.882,0-15.673,6.792-15.673,15.673v61.649h-47.02V76.278  c14.106-6.269,24.033-20.376,24.033-36.571C239.282,17.763,221.518,0,199.576,0s-39.706,17.763-39.706,39.706  c0,16.196,9.927,30.302,24.033,36.571v47.543h-44.408c-8.882,0-15.673,6.792-15.673,15.673v49.633H77.845V157.78  c14.106-6.269,24.033-20.376,24.033-36.571c0-21.943-17.763-39.706-39.706-39.706s-39.706,17.763-39.706,39.706  c0,16.196,9.927,30.302,24.033,36.571v47.02c0,8.882,6.792,15.673,15.673,15.673h61.649v47.02H76.278  c-6.269-14.106-20.376-24.033-36.571-24.033C17.763,243.461,0,261.224,0,283.167c0,21.943,17.763,39.706,39.706,39.706  c16.196,0,30.302-9.927,36.571-24.033h47.543v45.453c0,8.882,6.792,15.673,15.673,15.673h49.633v45.976H157.78  c-6.269-14.106-20.376-24.033-36.571-24.033c-21.943,0-39.706,17.763-39.706,39.706s17.763,39.706,39.706,39.706  c16.196,0,30.302-9.927,36.571-24.033h47.02c8.882,0,15.673-6.792,15.673-15.673v-61.649h47.02v47.543  c-14.106,6.269-24.033,20.376-24.033,36.571c0,21.943,17.763,39.706,39.706,39.706c21.943,0,39.706-17.763,39.706-39.706  c0-16.196-9.927-30.302-24.033-36.571v-47.543h45.453c8.882,0,15.673-6.792,15.673-15.673v-44.931h45.976v31.347  c-14.106,6.269-24.033,20.375-24.033,36.571c0,21.943,17.763,39.706,39.706,39.706s39.706-17.763,39.706-39.706  c0-16.196-9.927-30.302-24.033-36.571v-47.02c0-8.882-6.792-15.673-15.673-15.673h-61.649v-47.02H407.51z M444.082,196.963  c4.702,0,8.359,3.657,8.359,8.359s-3.657,8.359-8.359,8.359s-8.359-3.657-8.359-8.359S439.38,196.963,444.082,196.963z   M361.535,53.812c4.702,0,8.359,3.657,8.359,8.359s-3.657,8.359-8.359,8.359c-4.702,0-8.359-3.657-8.359-8.359  S356.833,53.812,361.535,53.812z M62.171,129.567c-4.702,0-8.359-3.657-8.359-8.359s3.657-8.359,8.359-8.359  s8.359,3.657,8.359,8.359S66.873,129.567,62.171,129.567z M39.706,291.527c-4.702,0-8.359-3.657-8.359-8.359  c0-4.702,3.657-8.359,8.359-8.359s8.359,3.657,8.359,8.359C48.065,287.869,44.408,291.527,39.706,291.527z M121.208,429.975  c-4.702,0-8.359-3.657-8.359-8.359c0-4.702,3.657-8.359,8.359-8.359s8.359,3.657,8.359,8.359  C129.567,426.318,125.91,429.975,121.208,429.975z M199.576,31.347c4.702,0,8.359,3.657,8.359,8.359s-3.657,8.359-8.359,8.359  c-4.702,0-8.359-3.657-8.359-8.359C191.216,35.004,194.873,31.347,199.576,31.347z M283.167,452.441  c-4.702,0-8.359-3.657-8.359-8.359s3.657-8.359,8.359-8.359c4.702,0,8.359,3.657,8.359,8.359  C291.527,448.784,287.869,452.441,283.167,452.441z M328.62,328.62H155.167V155.167H328.62L328.62,328.62L328.62,328.62z   M421.616,358.922c4.702,0,8.359,3.657,8.359,8.359s-3.657,8.359-8.359,8.359c-4.702,0-8.359-3.657-8.359-8.359  S416.914,358.922,421.616,358.922z" data-original="#1185E0" class="" data-old_color="#1185E0"/><path style="fill:#40C0D2" d="M292.049,307.722h-100.31c-8.882,0-15.673-6.792-15.673-15.673v-100.31  c0-8.882,6.792-15.673,15.673-15.673h100.31c8.882,0,15.673,6.792,15.673,15.673v100.31  C307.722,300.931,300.931,307.722,292.049,307.722z M207.412,276.375h68.963v-68.963h-68.963V276.375z" data-original="#4DCFE0" class="active-path" data-old_color="#4DCFE0"/></g> </svg>
